
<svg xmlns="http://www.w3.org/2000/svg"
     viewBox="0 0 520.75 552">

<path
    fill="#000000"
    d="M276.750 20C250.750 20 228.750 35 218.750 56C211.750 53 203.750 52 196.750 52C160.750 52 132.750 81 132.750 116L132.750 282L129.750 279C104.750 254 63.750 254 38.750 279C13.750 304 13.750 344 38.750 369L126.750 457C174.750 505 239.750 532 307.750 532L324.750 532C325.750 532 327.750 532 328.750 532C420.750 525 493.750 452 499.750 361C499.750 359 500.750 358 500.750 356L500.750 180C500.750 145 471.750 116 436.750 116C430.750 116 425.750 117 420.750 118L420.750 116C420.750 81 391.750 52 356.750 52C348.750 52 340.750 53 333.750 56C323.750 35 301.750 20 276.750 20ZM260.750 116L260.750 116L260.750 84C260.750 75 267.750 68 276.750 68C284.750 68 292.750 75 292.750 84L292.750 252C292.750 265 302.750 276 316.750 276C329.750 276 340.750 265 340.750 252L340.750 116C340.750 107 347.750 100 356.750 100C364.750 100 372.750 107 372.750 116L372.750 252C372.750 265 382.750 276 396.750 276C409.750 276 420.750 265 420.750 252L420.750 180C420.750 171 427.750 164 436.750 164C444.750 164 452.750 171 452.750 180L452.750 353C451.750 354 451.750 354 451.750 355C448.750 425 392.750 480 322.750 484C322.750 484 321.750 484 320.750 484L307.750 484C252.750 484 199.750 462 160.750 423L72.750 335C66.750 329 66.750 319 72.750 313C78.750 307 89.750 307 95.750 313L139.750 356C145.750 363 156.750 365 165.750 362C174.750 358 180.750 349 180.750 339L180.750 116C180.750 107 187.750 100 196.750 100C204.750 100 212.750 107 212.750 116L212.750 252C212.750 265 222.750 276 236.750 276C249.750 276 260.750 265 260.750 252L260.750 116Z"
/>

</svg>
