
<svg xmlns="http://www.w3.org/2000/svg"
     viewBox="0 0 551.75 551.75">

<path
    fill="#000000"
    d="M228 68C316 68 388 140 388 228C388 316 316 388 228 388C140 388 68 316 68 228C68 140 140 68 228 68ZM228 436C277 436 322 419 357 391L491 525C500 534 516 534 525 525C534 516 534 500 525 491L391 357C419 322 436 277 436 228C436 113 343 20 228 20C113 20 20 113 20 228C20 343 113 436 228 436ZM156 204C143 204 132 215 132 228C132 241 143 252 156 252L300 252C313 252 324 241 324 228C324 215 313 204 300 204L156 204Z"
/>

</svg>
